HIERARCHY
ROOT Hip
{
   OFFSET 0.00000 0.00000 0.00000
   CHANNELS 6 Xposition Yposition Zposition Zrotation Yrotation Xrotation
   JOINT Head
   {
      OFFSET 0.000000 24.943800 0.000000
      CHANNELS 3 Zrotation Yrotation Xrotation
      End Site
      {
         OFFSET 0.000000 14.861699 0.000000
      }
      JOINT LeftShoulder
      {
         OFFSET 8.247329 0.000000 0.000000
         CHANNELS 3 Zrotation Yrotation Xrotation
         JOINT LeftHand
         {
            OFFSET 0.000000 -12.051899 0.000000
            CHANNELS 3 Zrotation Yrotation Xrotation
            End Site
            {
               OFFSET 0.000000 -13.199549 0.000000
            }
         }
      }
      JOINT RightShoulder
      {
         OFFSET -8.789759 0.000000 0.000000
         CHANNELS 3 Zrotation Yrotation Xrotation
         JOINT RghtHand
         {
            OFFSET 0.000000 -14.440650 0.000000
            CHANNELS 3 Zrotation Yrotation Xrotation
            End Site
            {
               OFFSET 0.000000 -9.891839 0.000000
            }
         }
      }
   }
   JOINT LeftHip
   {
      OFFSET 8.726865 0.000000 0.000000
      CHANNELS 3 Zrotation Yrotation Xrotation
      JOINT LeftKnee
      {
         OFFSET 0.000000 -24.599397 0.000000
         CHANNELS 3 Zrotation Yrotation Xrotation
         JOINT LeftFoot
         {
            OFFSET 0.000000 -18.756150 0.000000
            CHANNELS 3 Zrotation Yrotation Xrotation
            End Site
            {
               OFFSET 0.000000 0.000000 12.223049
            }
         }
      }
   }
   JOINT RightHip
   {
      OFFSET -8.726865 0.000000 0.000000
      CHANNELS 3 Zrotation Yrotation Xrotation
      JOINT RightKnee
      {
         OFFSET 0.000000 -22.263150 0.000000
         CHANNELS 3 Zrotation Yrotation Xrotation
         JOINT RightFoot
         {
            OFFSET 0.000000 -19.093200 0.000000
            CHANNELS 3 Zrotation Yrotation Xrotation
            End Site
            {
               OFFSET 0.000000 0.000000 12.277648
            }
         }
      }
   }
}
MOTION
Frames: 22
Frame Time: 0.016670
8.181009 41.210040 -15.474388 145.668442 88.585081 149.279549 -1.763447 22.410419 -27.252492 10.487228 -13.743112 19.322078 -8.376700 -0.621425 16.824018 -31.787492 -12.146403 42.353238 -26.148447 5.209945 43.297986 -15.261581 -58.906741 1.343507 36.658831 -52.975798 5.628824 -7.736735 -50.056875 -26.856090 -6.456205 -49.889505 3.552781 15.142524 -43.334542 -0.102458 -6.348400 -40.369529 -13.413146
8.163912 41.194286 -15.461775 180.391184 63.727625 184.003165 1.528987 -2.529464 -27.754832 2.648857 -22.197340 22.422632 -10.907570 -2.274495 15.057914 -39.584539 -14.639986 43.638598 -29.889475 5.674305 38.958265 -5.175760 -68.712092 -7.981990 35.670458 -60.053298 -2.216714 -7.157437 -57.488323 -28.177336 -18.162940 -58.108674 23.139318 31.616761 -47.057213 -13.892792 -3.994208 -48.666884 -10.639721
8.149176 41.187009 -15.445981 180.225224 62.822331 183.714385 1.485088 -3.169661 -27.610083 -1.943561 -31.572382 24.571167 -13.872947 -3.520054 12.812908 -43.955935 -19.437050 44.870668 -34.105607 6.382399 35.248554 -4.949118 -69.055050 -8.186814 35.675803 -60.131701 -2.565573 -7.192092 -57.612810 -28.183741 -19.947081 -58.674037 25.324408 33.347050 -46.479509 -14.849519 -4.035638 -48.900394 -10.667671
8.152262 41.182379 -15.435135 180.184434 62.559157 183.459810 1.471863 -3.108354 -27.259823 -6.902292 -39.772731 27.356255 -16.118734 -4.627483 10.492092 -48.332526 -23.907156 46.470196 -37.760158 6.532825 31.406224 -5.399650 -69.240886 -7.674222 35.564600 -60.106512 -2.406129 -7.254450 -57.536455 -28.168402 -21.318564 -58.908565 26.822703 34.006351 -46.127536 -14.727500 -4.106512 -48.687631 -10.716307
8.135283 41.178412 -15.409250 180.129874 62.276633 183.228444 1.383211 -3.014073 -26.893016 -11.966211 -46.443179 30.776604 -17.698892 -5.534792 8.190846 -52.624463 -27.989794 48.417992 -40.860842 6.268072 27.686028 -5.635231 -69.413922 -7.374967 35.503784 -60.074294 -2.361868 -7.330796 -57.477954 -28.174066 -22.742233 -59.208267 28.335233 34.707617 -45.763026 -14.566372 -4.187544 -48.472630 -10.781045
8.114948 41.174254 -15.375911 180.078429 62.026095 182.990330 1.304290 -2.894933 -26.504930 -16.948780 -51.398983 34.587446 -18.698667 -6.209211 6.077761 -56.791647 -31.638785 50.557060 -43.445034 5.725381 24.218895 -5.828186 -69.566556 -7.117172 35.397896 -60.068618 -2.338588 -7.396390 -57.442280 -28.171598 -24.296245 -59.512108 29.940804 35.436896 -45.383458 -14.328103 -4.283730 -48.242620 -10.868780
8.090131 41.165375 -15.335057 180.053267 61.817822 182.749443 1.224942 -2.675186 -26.098517 -21.588105 -54.910835 38.391766 -19.297470 -6.643836 4.252717 -60.779784 -34.808194 52.863895 -45.458645 4.977761 21.090881 -6.058671 -69.671980 -6.834890 35.264741 -60.091513 -2.242605 -7.465149 -57.420492 -28.173359 -25.992958 -59.813305 31.675245 36.246393 -44.966458 -14.055289 -4.417121 -47.993004 -10.999536
8.058300 41.158571 -15.273978 180.070520 61.598648 182.568866 1.113500 -2.415344 -25.706600 -25.769064 -57.374443 42.010004 -19.696659 -6.860334 2.724414 -64.514449 -37.521934 55.258317 -47.003760 4.134235 18.372888 -6.137391 -69.767746 -6.673517 35.150063 -60.135977 -2.198955 -7.535906 -57.429904 -28.186044 -27.752507 -60.198562 33.449458 36.935375 -44.585706 -13.613177 -4.522733 -47.709831 -11.095135
8.044159 41.148042 -15.224216 180.037981 61.698929 182.286261 0.979155 -1.841785 -25.207691 -29.514757 -59.059034 45.366817 -19.935801 -6.883071 1.372625 -67.943880 -39.873316 57.586213 -48.167727 3.266737 16.011439 -6.735192 -69.862426 -5.990715 35.015132 -60.074833 -1.912727 -7.641576 -57.291972 -28.199498 -29.626478 -60.462569 35.233702 37.491486 -44.153092 -12.975766 -4.679869 -47.297960 -11.249212
7.978721 41.134104 -15.113652 180.151171 61.363116 182.275551 0.920783 -1.663598 -24.898809 -32.823676 -60.107741 48.463891 -20.035130 -6.728537 0.167671 -71.048700 -41.790489 59.899646 -48.981510 2.408942 14.045866 -6.252633 -69.816616 -6.399555 34.906255 -60.276078 -1.965034 -7.715617 -57.476315 -28.260394 -31.384221 -61.189459 37.062454 37.919622 -43.776431 -12.433067 -4.791070 -46.929533 -11.342946
7.937596 41.141352 -15.017733 180.201728 61.354640 182.138619 0.812864 -1.168957 -24.500478 -35.829697 -60.756910 51.310662 -20.100924 -6.418640 -0.869205 -73.793582 -43.458745 62.101507 -49.495007 1.575175 12.332232 -6.313593 -69.902246 -6.210665 34.853933 -60.281146 -1.876407 -7.780814 -57.447184 -28.253066 -33.191813 -61.850901 38.842306 38.021262 -43.343554 -11.682134 -4.873325 -46.385676 -11.384813
7.884977 41.135516 -14.898753 180.307241 61.309349 182.081997 0.729755 -0.720075 -24.135141 -38.515980 -61.173940 53.879578 -20.279294 -5.975763 -1.789514 -76.238920 -44.861871 64.140087 -49.859469 0.807345 10.936092 -6.254365 -70.044307 -6.102866 34.912717 -60.269323 -1.825387 -7.875556 -57.425526 -28.285280 -34.995827 -62.616784 40.645663 38.015064 -42.931659 -10.911316 -5.009906 -45.852699 -11.499705
7.813483 41.132440 -14.790690 180.313975 61.314588 181.947811 0.615948 -0.257215 -23.804364 -40.945936 -61.323836 56.194429 -20.433998 -5.414236 -2.559983 -78.418652 -46.123489 65.961753 -50.186929 0.107052 9.808083 -6.245047 -69.943883 -6.112086 34.796064 -60.412982 -1.611925 -7.924683 -57.513417 -28.295399 -36.798430 -63.356104 42.283717 37.783780 -42.601181 -9.913126 -5.165947 -45.329510 -11.646887
7.738148 41.131358 -14.658316 180.393096 61.280280 181.907581 0.548631 0.120911 -23.486463 -43.112410 -61.270294 58.256917 -20.665916 -4.745474 -3.334116 -80.321706 -47.203331 67.609106 -50.414641 -0.537252 8.902570 -6.029244 -70.017628 -6.218059 34.862235 -60.461395 -1.585539 -7.976793 -57.556597 -28.300817 -38.522793 -64.179019 43.913134 37.428071 -42.285192 -8.951929 -5.313274 -44.827710 -11.782378
7.668568 41.140813 -14.541167 180.392495 61.317675 181.745187 0.412560 0.567638 -23.140558 -45.077760 -61.084226 60.091772 -20.884808 -3.971689 -3.975448 -81.991326 -48.108489 69.093360 -50.506476 -1.147291 8.163130 -6.027558 -69.953677 -6.188622 34.780027 -60.557523 -1.430555 -7.993527 -57.609832 -28.272736 -40.293618 -64.877590 45.523662 37.030444 -41.977161 -7.979129 -5.438501 -44.354647 -11.891152
7.591920 41.144637 -14.405887 180.454923 61.267384 181.679111 0.335366 0.936325 -22.860978 -46.842103 -60.833503 61.703096 -21.250267 -3.127036 -4.516218 -83.485908 -48.864755 70.388289 -50.516202 -1.717456 7.672723 -5.734811 -69.956676 -6.381107 34.789610 -60.631671 -1.444800 -8.031601 -57.677744 -28.278653 -42.030245 -65.582575 47.172985 36.665224 -41.669150 -7.063744 -5.584877 -43.922542 -12.026412
7.508637 41.146669 -14.263274 180.508185 61.194499 181.611752 0.311323 1.293143 -22.562166 -48.429904 -60.587357 63.086243 -21.726466 -2.215100 -5.021412 -84.812351 -49.523813 71.524716 -50.594746 -2.247102 7.360718 -5.362245 -69.841102 -6.684757 34.727547 -60.779975 -1.424894 -8.048808 -57.807067 -28.279056 -43.764212 -66.243942 48.836385 36.338451 -41.375701 -6.199876 -5.723847 -43.540728 -12.151850
7.431193 41.144928 -14.129433 180.511777 61.092948 181.457376 0.299739 1.606595 -22.188238 -49.868324 -60.386843 64.264915 -22.288639 -1.241189 -5.448813 -85.963572 -50.168330 72.503612 -50.757612 -2.741138 7.146589 -5.130555 -69.784145 -6.843364 34.626986 -60.900603 -1.421542 -8.085918 -57.907341 -28.296125 -45.542421 -66.736494 50.532130 36.117699 -41.125436 -5.413946 -5.865374 -43.247344 -12.290983
7.354056 41.143026 -13.998861 180.487134 60.979984 181.246706 0.323115 1.892637 -21.790783 -51.159083 -60.207305 65.274294 -22.964011 -0.208764 -5.918200 -86.942530 -50.805679 73.370104 -50.978278 -3.211724 6.998370 -4.879625 -69.727373 -7.027723 34.517327 -61.002940 -1.461815 -8.115047 -57.992951 -28.303278 -47.342148 -67.129859 52.244308 35.977724 -40.890191 -4.673822 -6.004284 -42.997298 -12.426998
7.268144 41.128253 -13.863998 180.432738 60.761240 181.034150 0.344548 2.087543 -21.377232 -52.298776 -60.077941 66.145683 -23.727343 0.887891 -6.445683 -87.790102 -51.449694 74.156880 -51.344711 -3.658359 6.965102 -4.499189 -69.668886 -7.358112 34.409083 -61.126068 -1.573685 -8.146839 -58.111147 -28.320922 -49.152538 -67.421713 54.009905 36.049762 -40.687317 -4.079845 -6.158692 -42.826481 -12.592601
7.188610 41.108379 -13.730612 180.359560 60.565842 180.777608 0.384778 2.297586 -20.976558 -53.302854 -59.921304 66.915882 -24.534272 2.057653 -7.024736 -88.513699 -52.009961 74.864508 -51.707145 -4.098202 6.992584 -4.186850 -69.633533 -7.613458 34.284558 -61.255397 -1.666950 -8.208143 -58.233155 -28.374604 -50.953515 -67.617664 55.795651 36.239802 -40.458636 -3.573943 -6.327494 -42.651311 -12.773930
7.106256 41.087627 -13.598335 180.268609 60.367008 180.511532 0.421694 2.503019 -20.561830 -54.199969 -59.803490 67.586730 -25.338730 3.312421 -7.614995 -89.108806 -52.565856 75.497639 -52.168855 -4.521682 7.039848 -3.873452 -69.562622 -7.886238 34.138655 -61.378307 -1.768241 -8.256308 -58.346666 -28.410805 -52.776073 -67.726243 57.626306 36.612539 -40.231713 -3.217066 -6.476796 -42.505275 -12.928116
